<svg width="14" height="14" viewBox="0 0 14 14" fill="none" xmlns="http://www.w3.org/2000/svg">
<g clip-path="url(#clip0_1_989)">
<path d="M6.99999 13.9932C7.95622 13.9932 8.85638 13.8103 9.70047 13.4444C10.5446 13.0786 11.2892 12.5733 11.9343 11.9285C12.5794 11.2837 13.085 10.5395 13.4509 9.69575C13.817 8.85207 14 7.95235 14 6.99659C14 6.04084 13.817 5.14112 13.4509 4.29741C13.085 3.45371 12.5794 2.70946 11.9343 2.06468C11.2892 1.41989 10.5435 0.914586 9.69703 0.548752C8.85064 0.182917 7.94934 0 6.99313 0C6.03692 0 5.13676 0.182917 4.29264 0.548752C3.44853 0.914586 2.70506 1.41989 2.06225 2.06468C1.41944 2.70946 0.915032 3.45371 0.549019 4.29741C0.183006 5.14112 0 6.04084 0 6.99659C0 7.95235 0.183006 8.85207 0.549019 9.69575C0.915032 10.5395 1.42059 11.2837 2.06568 11.9285C2.71078 12.5733 3.45539 13.0786 4.2995 13.4444C5.14362 13.8103 6.04378 13.9932 6.99999 13.9932Z" fill="#CCD2E3" fill-opacity="0.11"/>
<path d="M8.35888 10.3852C8.26738 10.472 8.14728 10.5132 7.99858 10.5086C7.84993 10.504 7.72756 10.456 7.63147 10.3646L4.76969 7.66884C4.64158 7.54995 4.5558 7.40818 4.51234 7.24354C4.46887 7.07891 4.46887 6.91429 4.51234 6.74967C4.5558 6.58504 4.64158 6.44328 4.76969 6.32438L7.63147 3.63549C7.73669 3.53489 7.85906 3.4823 7.99858 3.47773C8.13815 3.47316 8.25597 3.51889 8.35206 3.61491C8.45729 3.71095 8.51217 3.83213 8.51671 3.97846C8.52131 4.1248 8.47099 4.24827 8.36576 4.34888L5.54517 6.9966L8.36576 9.65116C8.4664 9.7472 8.51671 9.86839 8.51671 10.0147C8.51671 10.1611 8.4641 10.2845 8.35888 10.3852Z" fill="#CCD2E3"/>
</g>
<defs>
<clipPath id="clip0_1_989">
<rect width="14" height="14" fill="white"/>
</clipPath>
</defs>
</svg>
