<svg width="13" height="13" viewBox="0 0 13 13" fill="none" xmlns="http://www.w3.org/2000/svg">
<path d="M0.696904 12.5906C0.867237 12.7609 1.07325 12.845 1.31494 12.8427C1.55662 12.8404 1.76033 12.7563 1.92606 12.5906L6.39381 8.12286L10.8615 12.5906C11.0273 12.7563 11.231 12.8404 11.4727 12.8427C11.7144 12.845 11.9204 12.761 12.0907 12.5906C12.2611 12.4203 12.3462 12.2131 12.3462 11.9691C12.3462 11.7251 12.2633 11.5203 12.0976 11.3545L7.62987 6.8868L12.0907 2.42598C12.2564 2.26024 12.3405 2.05652 12.3428 1.81483C12.3451 1.57313 12.2611 1.36712 12.0907 1.19679C11.9204 1.02646 11.7132 0.941292 11.4692 0.941297C11.2252 0.941301 11.0204 1.02418 10.8546 1.18992L6.39381 5.65074L1.93296 1.1899C1.76723 1.02417 1.56238 0.941303 1.31839 0.941303C1.0744 0.941303 0.867237 1.02647 0.696904 1.1968C0.526572 1.36714 0.442558 1.57314 0.444863 1.81483C0.447163 2.05652 0.531177 2.26022 0.696905 2.42595L5.15775 6.8868L0.689997 11.3546C0.524269 11.5203 0.441405 11.7251 0.441405 11.9691C0.441406 12.2131 0.526572 12.4203 0.696904 12.5906Z" fill="white"/>
</svg>
