<svg width="60" height="60" viewBox="0 0 60 60" fill="none" xmlns="http://www.w3.org/2000/svg">
<g filter="url(#filter0_d_4_1428)">
<g filter="url(#filter1_d_4_1428)">
<path d="M30.3516 37.3438C30.599 37.3438 30.918 37.1859 31.3086 36.8701C31.6992 36.5544 32.1077 36.1491 32.5342 35.6543C32.9606 35.1595 33.3626 34.6289 33.7402 34.0625C34.1178 33.4961 34.4254 32.9557 34.6631 32.4414C34.9007 31.9271 35.0195 31.5039 35.0195 31.1719C35.0195 30.931 34.9072 30.6526 34.6826 30.3369C34.458 30.0212 34.1732 29.7135 33.8281 29.4141C33.483 29.1146 33.1282 28.8672 32.7637 28.6719C32.3991 28.4766 32.0801 28.3789 31.8066 28.3789C31.6439 28.3789 31.4583 28.4359 31.25 28.5498C31.0417 28.6637 30.8285 28.7777 30.6104 28.8916C30.3923 29.0055 30.1888 29.0625 30 29.0625C29.8633 29.0625 29.694 29.0055 29.4922 28.8916C29.2904 28.7777 29.0902 28.6344 28.8916 28.4619C28.693 28.2894 28.527 28.1136 28.3935 27.9346C28.2601 27.7555 28.1934 27.6074 28.1934 27.4902C28.1934 27.3535 28.2438 27.2477 28.3447 27.1729C28.4456 27.098 28.5645 27.0606 28.7012 27.0606C28.8574 27.0606 29.043 27.1273 29.2578 27.2607C29.4727 27.3942 29.7022 27.5277 29.9463 27.6611C30.1904 27.7946 30.4395 27.8613 30.6934 27.8613C31.0124 27.8613 31.2549 27.7604 31.4209 27.5586C31.5869 27.3568 31.6699 27.0996 31.6699 26.7871C31.6699 26.6244 31.6276 26.4551 31.543 26.2793C31.4583 26.1035 31.3476 25.9082 31.2109 25.6934C31.4648 25.5697 31.766 25.4134 32.1143 25.2246C32.4626 25.0358 32.819 24.8177 33.1836 24.5703C33.5482 24.3229 33.8819 24.0511 34.1846 23.7549C34.4873 23.4587 34.7201 23.1413 34.8828 22.8027C34.5182 22.2363 33.8867 21.7822 32.9883 21.4404C32.0898 21.0986 31.0742 20.9277 29.9414 20.9277C29.1081 20.9277 28.2926 21.0384 27.4951 21.2598C26.6976 21.4811 25.9733 21.779 25.3223 22.1533C24.6712 22.5277 24.139 22.9443 23.7256 23.4033C23.3122 23.8623 23.0697 24.3327 22.998 24.8144C22.9395 25.3288 23.0941 25.8659 23.4619 26.4258C23.8298 26.9857 24.3555 27.5618 25.0391 28.1543L26.4648 29.3945C26.6927 29.5964 26.8685 29.7559 26.9922 29.873C27.1159 29.9902 27.1777 30.1107 27.1777 30.2344C27.1777 30.3711 27.1387 30.5013 27.0606 30.625C26.9824 30.7487 26.9043 30.8772 26.8262 31.0107C26.748 31.1442 26.709 31.3021 26.709 31.4844C26.709 31.9727 26.9564 32.3991 27.4512 32.7637C27.9785 33.1608 28.3838 33.4603 28.667 33.6621C28.9502 33.8639 29.1455 34.0218 29.2529 34.1357C29.3603 34.2496 29.4141 34.3652 29.4141 34.4824C29.4206 34.8079 29.3604 35.1025 29.2334 35.3662C29.1064 35.6299 29.043 35.9114 29.043 36.2109C29.043 36.4778 29.1846 36.7334 29.4678 36.9775C29.751 37.2217 30.0456 37.3438 30.3516 37.3438ZM29.9609 39.9219C31.3216 39.9219 32.6026 39.6615 33.8037 39.1406C35.0049 38.6198 36.0645 37.9004 36.9824 36.9824C37.9004 36.0645 38.6198 35.0049 39.1406 33.8037C39.6615 32.6026 39.9219 31.3216 39.9219 29.9609C39.9219 28.6003 39.6615 27.3193 39.1406 26.1182C38.6198 24.917 37.9004 23.8574 36.9824 22.9395C36.0645 22.0215 35.0033 21.3021 33.7988 20.7812C32.5944 20.2604 31.3119 20 29.9512 20C28.5905 20 27.3096 20.2604 26.1084 20.7812C24.9072 21.3021 23.8493 22.0215 22.9346 22.9395C22.0199 23.8574 21.3021 24.917 20.7812 26.1182C20.2604 27.3193 20 28.6003 20 29.9609C20 31.3216 20.2604 32.6026 20.7812 33.8037C21.3021 35.0049 22.0215 36.0645 22.9395 36.9824C23.8574 37.9004 24.917 38.6198 26.1182 39.1406C27.3193 39.6615 28.6003 39.9219 29.9609 39.9219ZM29.9609 38.5938C28.7826 38.5938 27.6725 38.3675 26.6309 37.915C25.5892 37.4625 24.6712 36.8392 23.877 36.0449C23.0827 35.2506 22.4593 34.3327 22.0068 33.291C21.5544 32.2493 21.3281 31.1393 21.3281 29.9609C21.3281 28.7826 21.5544 27.6725 22.0068 26.6309C22.4593 25.5892 23.0811 24.6712 23.8721 23.877C24.6631 23.0827 25.5794 22.4593 26.6211 22.0068C27.6628 21.5544 28.7728 21.3281 29.9512 21.3281C31.1296 21.3281 32.2396 21.5544 33.2812 22.0068C34.3229 22.4593 35.2425 23.0827 36.04 23.877C36.8375 24.6712 37.4625 25.5892 37.915 26.6309C38.3675 27.6725 38.5938 28.7826 38.5938 29.9609C38.5938 31.1393 38.3675 32.2493 37.915 33.291C37.4625 34.3327 36.8392 35.2506 36.0449 36.0449C35.2506 36.8392 34.3327 37.4625 33.291 37.915C32.2493 38.3675 31.1393 38.5938 29.9609 38.5938Z" fill="url(#paint0_linear_4_1428)"/>
</g>
</g>
<defs>
<filter id="filter0_d_4_1428" x="10" y="10" width="39.9219" height="39.9219" filterUnits="userSpaceOnUse" color-interpolation-filters="sRGB">
<feFlood flood-opacity="0" result="BackgroundImageFix"/>
<feColorMatrix in="SourceAlpha" type="matrix" values="0 0 0 0 0 0 0 0 0 0 0 0 0 0 0 0 0 0 127 0" result="hardAlpha"/>
<feOffset/>
<feGaussianBlur stdDeviation="5"/>
<feComposite in2="hardAlpha" operator="out"/>
<feColorMatrix type="matrix" values="0 0 0 0 0.0784314 0 0 0 0 0.776471 0 0 0 0 0.494118 0 0 0 0.6 0"/>
<feBlend mode="normal" in2="BackgroundImageFix" result="effect1_dropShadow_4_1428"/>
<feBlend mode="normal" in="SourceGraphic" in2="effect1_dropShadow_4_1428" result="shape"/>
</filter>
<filter id="filter1_d_4_1428" x="0" y="0" width="59.9219" height="59.9219" filterUnits="userSpaceOnUse" color-interpolation-filters="sRGB">
<feFlood flood-opacity="0" result="BackgroundImageFix"/>
<feColorMatrix in="SourceAlpha" type="matrix" values="0 0 0 0 0 0 0 0 0 0 0 0 0 0 0 0 0 0 127 0" result="hardAlpha"/>
<feOffset/>
<feGaussianBlur stdDeviation="10"/>
<feComposite in2="hardAlpha" operator="out"/>
<feColorMatrix type="matrix" values="0 0 0 0 0.462745 0 0 0 0 0.588235 0 0 0 0 0.0196078 0 0 0 0.6 0"/>
<feBlend mode="normal" in2="BackgroundImageFix" result="effect1_dropShadow_4_1428"/>
<feBlend mode="normal" in="SourceGraphic" in2="effect1_dropShadow_4_1428" result="shape"/>
</filter>
<linearGradient id="paint0_linear_4_1428" x1="29.9609" y1="20" x2="29.9609" y2="39.9219" gradientUnits="userSpaceOnUse">
<stop stop-color="#14C67E"/>
<stop offset="1" stop-color="#097247"/>
</linearGradient>
</defs>
</svg>
