<svg width="17" height="17" viewBox="0 0 17 17" fill="none" xmlns="http://www.w3.org/2000/svg">
<path d="M0 8.89252C0 9.1334 0.086263 9.33848 0.258789 9.50776C0.431315 9.67702 0.634766 9.76166 0.869141 9.76166H7.1875V16.08C7.1875 16.3144 7.27214 16.5178 7.44141 16.6904C7.61068 16.8629 7.81575 16.9492 8.05664 16.9492C8.29753 16.9492 8.50423 16.8629 8.67676 16.6904C8.84929 16.5178 8.93555 16.3144 8.93555 16.08V9.76166H15.2441C15.4785 9.76166 15.682 9.67702 15.8545 9.50776C16.027 9.33848 16.1133 9.1334 16.1133 8.89252C16.1133 8.65163 16.027 8.44492 15.8545 8.2724C15.682 8.09987 15.4785 8.01361 15.2441 8.01361H8.93555V1.70502C8.93555 1.47064 8.84929 1.26719 8.67676 1.09467C8.50423 0.922139 8.29753 0.835876 8.05664 0.835876C7.81575 0.835876 7.61068 0.922139 7.44141 1.09467C7.27214 1.26719 7.1875 1.47064 7.1875 1.70502V8.01361H0.869141C0.634766 8.01361 0.431315 8.09987 0.258789 8.2724C0.086263 8.44492 0 8.65163 0 8.89252Z" fill="white"/>
</svg>
