<svg width="60" height="54" viewBox="0 0 60 54" fill="none" xmlns="http://www.w3.org/2000/svg">
<g filter="url(#filter0_d_4_1421)">
<path d="M23.3436 31.459C23.1038 31.459 22.9103 31.3852 22.7632 31.2376C22.616 31.0901 22.5424 30.9016 22.5424 30.6721V29.1557C22.5424 28.9207 22.616 28.7308 22.7632 28.5861C22.9103 28.4412 23.1038 28.3688 23.3436 28.3688H25.3465C25.5863 28.3688 25.7797 28.4412 25.9269 28.5861C26.074 28.7308 26.1476 28.9207 26.1476 29.1557V30.6721C26.1476 30.9016 26.074 31.0901 25.9269 31.2376C25.7797 31.3852 25.5863 31.459 25.3465 31.459H23.3436ZM20 25.1639V23.3033H39.2112V25.1639H20ZM22.567 34H36.6443C37.4999 34 38.1417 33.7882 38.5695 33.3647C38.9973 32.9412 39.2112 32.3087 39.2112 31.4672V22.541C39.2112 21.6994 38.9973 21.0656 38.5695 20.6393C38.1417 20.2131 37.4999 20 36.6443 20H22.567C21.7113 20 21.0696 20.2117 20.6417 20.6352C20.2139 21.0587 20 21.694 20 22.541V31.4672C20 32.3087 20.2139 32.9412 20.6417 33.3647C21.0696 33.7882 21.7113 34 22.567 34Z" fill="#07BCFF"/>
</g>
<defs>
<filter id="filter0_d_4_1421" x="0" y="0" width="59.2112" height="54" filterUnits="userSpaceOnUse" color-interpolation-filters="sRGB">
<feFlood flood-opacity="0" result="BackgroundImageFix"/>
<feColorMatrix in="SourceAlpha" type="matrix" values="0 0 0 0 0 0 0 0 0 0 0 0 0 0 0 0 0 0 127 0" result="hardAlpha"/>
<feOffset/>
<feGaussianBlur stdDeviation="10"/>
<feComposite in2="hardAlpha" operator="out"/>
<feColorMatrix type="matrix" values="0 0 0 0 0.316667 0 0 0 0 0.82617 0 0 0 0 1 0 0 0 0.2 0"/>
<feBlend mode="normal" in2="BackgroundImageFix" result="effect1_dropShadow_4_1421"/>
<feBlend mode="normal" in="SourceGraphic" in2="effect1_dropShadow_4_1421" result="shape"/>
</filter>
</defs>
</svg>
