<svg width="16" height="16" viewBox="0 0 16 16" fill="none" xmlns="http://www.w3.org/2000/svg">
<g clip-path="url(#clip0_4_1442)">
<path d="M7.99999 15.9922C9.09282 15.9922 10.1216 15.7832 11.0863 15.365C12.051 14.947 12.902 14.3695 13.6392 13.6325C14.3765 12.8957 14.9542 12.0451 15.3725 11.0809C15.7908 10.1167 16 9.0884 16 7.9961C16 6.90382 15.7908 5.87556 15.3725 4.91132C14.9542 3.94709 14.3765 3.09653 13.6392 2.35963C12.902 1.62274 12.0497 1.04524 11.0823 0.627145C10.115 0.209048 9.08496 0 7.99215 0C6.89934 0 5.87058 0.209048 4.90588 0.627145C3.94117 1.04524 3.0915 1.62274 2.35686 2.35963C1.62222 3.09653 1.04575 3.94709 0.62745 4.91132C0.20915 5.87556 0 6.90382 0 7.9961C0 9.0884 0.20915 10.1167 0.62745 11.0809C1.04575 12.0451 1.62353 12.8957 2.36078 13.6325C3.09804 14.3695 3.94902 14.947 4.91372 15.365C5.87842 15.7832 6.90718 15.9922 7.99999 15.9922ZM7.99999 14.6595C7.0745 14.6595 6.20914 14.487 5.40392 14.1421C4.59869 13.7972 3.8915 13.3203 3.28235 12.7115C2.6732 12.1026 2.19738 11.3958 1.8549 10.5909C1.51242 9.78611 1.34117 8.92116 1.34117 7.9961C1.34117 7.07106 1.51242 6.20612 1.8549 5.40129C2.19738 4.59645 2.67189 3.8883 3.27843 3.27683C3.88496 2.66536 4.59084 2.18847 5.39607 1.84615C6.2013 1.50384 7.06666 1.33269 7.99215 1.33269C8.91764 1.33269 9.783 1.50384 10.5882 1.84615C11.3935 2.18847 12.102 2.66536 12.7137 3.27683C13.3255 3.8883 13.8039 4.59645 14.149 5.40129C14.4941 6.20612 14.6666 7.07106 14.6666 7.9961C14.6666 8.92116 14.4954 9.78611 14.1529 10.5909C13.8104 11.3958 13.3346 12.1026 12.7255 12.7115C12.1163 13.3203 11.4078 13.7972 10.6 14.1421C9.79216 14.487 8.9255 14.6595 7.99999 14.6595ZM7.84312 9.61882C8.03662 9.61882 8.18955 9.56393 8.30194 9.45417C8.41438 9.34446 8.4706 9.21383 8.4706 9.06227C8.4706 9.04659 8.4706 9.0296 8.4706 9.0113C8.4706 8.993 8.4706 8.97863 8.4706 8.96819C8.4706 8.74867 8.53595 8.55922 8.66664 8.39985C8.79739 8.24042 9.00131 8.06925 9.27839 7.88635C9.6549 7.63549 9.96601 7.37418 10.2117 7.10242C10.4575 6.83065 10.5804 6.45959 10.5804 5.98923C10.5804 5.55546 10.464 5.18962 10.2314 4.89173C9.9987 4.59384 9.69412 4.3678 9.31767 4.21363C8.94115 4.05946 8.5307 3.98237 8.0863 3.98237C7.41176 3.98237 6.86143 4.11956 6.43529 4.39393C6.00915 4.66831 5.74117 4.9858 5.63137 5.34641C5.61045 5.40912 5.59477 5.47184 5.5843 5.53455C5.57385 5.59727 5.56862 5.6626 5.56862 5.73053C5.56862 5.90822 5.62614 6.0428 5.74117 6.13426C5.8562 6.22572 5.97908 6.27145 6.10979 6.27145C6.24051 6.27145 6.35162 6.2427 6.44313 6.18522C6.53463 6.12773 6.61437 6.05195 6.68234 5.95788L6.82352 5.76973C6.91764 5.61817 7.02483 5.48882 7.14508 5.38169C7.26535 5.27455 7.39999 5.19224 7.54901 5.13474C7.69803 5.07726 7.85881 5.04851 8.03136 5.04851C8.39213 5.04851 8.67971 5.14128 8.89409 5.32681C9.10847 5.51234 9.21567 5.75405 9.21567 6.05195C9.21567 6.31848 9.13201 6.53668 8.96469 6.70653C8.79737 6.87638 8.54117 7.08151 8.19609 7.32191C7.91372 7.51528 7.67973 7.72956 7.4941 7.96474C7.30849 8.1999 7.21568 8.51087 7.21568 8.89763C7.21568 8.91331 7.21568 8.9303 7.21568 8.9486C7.21568 8.96685 7.21568 8.98382 7.21568 8.9995C7.21568 9.41238 7.42483 9.61882 7.84312 9.61882ZM7.8196 11.955C8.04965 11.955 8.24834 11.8766 8.41566 11.7198C8.58298 11.563 8.66664 11.3696 8.66664 11.1397C8.66664 10.9097 8.58298 10.7164 8.41566 10.5596C8.24834 10.4028 8.04965 10.3243 7.8196 10.3243C7.58953 10.3243 7.39215 10.4041 7.22744 10.5635C7.06274 10.7229 6.98039 10.9149 6.98039 11.1397C6.98039 11.3644 7.06405 11.5565 7.23137 11.7158C7.39869 11.8753 7.59476 11.955 7.8196 11.955Z" fill="#A2B7CA"/>
</g>
<defs>
<clipPath id="clip0_4_1442">
<rect width="16" height="16" fill="white"/>
</clipPath>
</defs>
</svg>
